<?xml version="1.0" encoding="utf-8"?>
<!-- Generator: Adobe Illustrator 25.2.3, SVG Export Plug-In . SVG Version: 6.00 Build 0)  -->
<svg version="1.1" id="Layer_1" xmlns="http://www.w3.org/2000/svg" xmlns:xlink="http://www.w3.org/1999/xlink" x="0px" y="0px"
	 viewBox="0 0 2000 2000" enable-background="new 0 0 2000 2000" xml:space="preserve">
<g>
	<g>
		<polygon points="919.76,898.55 959.95,898.55 959.95,826.86 988.46,826.86 988.46,797.89 891.26,797.89 891.26,826.86 
			919.76,826.86 		"/>
		<polygon points="1018.09,898.55 1038.57,838.35 1059.04,898.55 1098.33,898.55 1059.82,797.89 1017.3,797.89 978.8,898.55 		"/>
		<polygon points="1117.2,898.55 1157.4,898.55 1157.4,826.86 1185.91,826.86 1185.91,797.89 1088.69,797.89 1088.69,826.86 
			1117.2,826.86 		"/>
		<polygon points="1215.53,898.55 1236,838.35 1256.48,898.55 1295.78,898.55 1257.27,797.89 1214.75,797.89 1176.24,898.55 		"/>
		<path d="M1601.2,970.54c5.31,11.93,11.33,23.52,18.04,34.72l26.24,44.28h19.04V948.88h-17V984c0,15.39,0.36,28.34,1.65,41.72
			l-0.35,0.1c-4.94-11.62-10.67-22.89-17.15-33.73l-26.02-43.21h-20.99v100.67h16.99v-36.05c0-16.53-0.24-29.82-0.97-42.89
			L1601.2,970.54z"/>
		<path d="M1509.92,1021.09h31.96l9.12,28.44h19.73l-32.71-100.66h-23.41l-32.31,100.66h19.02L1509.92,1021.09z M1520.7,982.33
			c1.76-5.99,3.32-12.96,4.79-18.89h0.31c1.52,5.83,3.15,12.69,5.11,18.89l7.93,24.81h-25.94L1520.7,982.33z"/>
		<path d="M1210.22,1035.9c-8.52-0.07-16.88-2.28-24.32-6.42l-4.08,15.23c5.51,3.37,16.56,6.42,27.21,6.42
			c25.99,0,38.19-14.06,38.19-30.26c0-14.46-8.4-23.26-25.89-29.92c-13.45-5.13-19.27-8.76-19.27-16.48
			c0-5.93,4.95-12.12,16.64-12.12c6.99-0.05,13.89,1.59,20.11,4.78l4.41-14.83c-5.25-2.67-13.25-4.99-24.14-4.99
			c-21.83,0-35.62,12.43-35.62,28.91c0,14.43,10.63,23.34,27.29,29.25c12.72,4.62,17.84,9.1,17.84,16.7
			C1228.52,1030.4,1221.96,1035.9,1210.22,1035.9z"/>
		<path d="M945.92,962.47c6.74-0.08,13.42,1.26,19.61,3.93l4.01-14.63c-3.73-2.02-12.27-4.46-24.39-4.46
			c-30.76,0-53.89,19.94-53.89,53.1c0,30.64,19.46,50.73,51.43,50.73c12.18,0,21.76-2.39,26.11-4.58l-3.03-14.48
			c-4.86,2.18-12.6,3.65-20.07,3.65c-22.13,0-35.05-14.06-35.05-36.24C910.62,975.29,925.38,962.47,945.92,962.47z"/>
		<polygon points="1459.94,1049.54 1459.94,964.33 1488.96,964.33 1488.96,948.88 1412.79,948.88 1412.79,964.33 1441.55,964.33 
			1441.55,1049.54 		"/>
		<path d="M1827.47,948.88l-12.12,25.78c-3.43,7.35-6.22,13.56-8.71,19.94h-0.3c-2.76-6.82-5.35-12.54-8.79-19.94l-11.95-25.78
			h-20.99l31.83,58.78v41.89h18.39v-42.4l33.44-58.25L1827.47,948.88z"/>
		<path d="M1022.83,947.23c-28.43,0-47.95,21.83-47.95,52.75c0,29.46,18,51.22,46.45,51.22h0.15c27.57,0,48.02-19.28,48.02-53.01
			C1069.51,969.41,1052.18,947.23,1022.83,947.23z M1022.11,1036.45h-0.15c-17.58,0-27.86-16.92-27.8-36.94
			c0.05-20.02,9.66-37.59,28-37.59c18.35,0,27.78,17.95,27.78,36.94c0,21.09-10.07,37.61-27.84,37.61L1022.11,1036.45z"/>
		<path d="M1735.1,962.47c6.74-0.08,13.42,1.26,19.62,3.93l4.01-14.63c-3.74-2.02-12.27-4.46-24.39-4.46
			c-30.77,0-53.9,19.94-53.9,53.1c0,30.64,19.46,50.73,51.43,50.73c12.18,0,21.76-2.38,26.11-4.58l-3.03-14.48
			c-4.86,2.19-12.6,3.66-20.07,3.66c-22.13,0-35.05-14.07-35.05-36.25C1699.8,975.29,1714.56,962.47,1735.1,962.47z"/>
		<polygon points="1381.6,948.88 1363.2,948.88 1363.2,1049.55 1423,1049.55 1423,1034.11 1381.6,1034.11 		"/>
		<path d="M1342.28,1006.38v-57.5h-18.4v58.69c0,19.73-7.97,28.82-21.21,28.82c-12.47,0-20.64-9.15-20.64-28.82v-58.69h-18.39v57.59
			c0,31.67,15.14,44.73,38.35,44.73C1326.31,1051.21,1342.28,1037.39,1342.28,1006.38z"/>
		<path d="M1165.15,948.88h-17V984c0,15.39,0.35,28.34,1.64,41.72l-0.35,0.1c-4.94-11.62-10.67-22.89-17.15-33.73l-26.01-43.21
			h-20.99v100.67h17.02v-36.05c0-16.53-0.25-29.82-0.98-42.89l0.47-0.1c5.31,11.93,11.34,23.52,18.05,34.72l26.24,44.28h19.05
			L1165.15,948.88z"/>
		<rect x="1225.42" y="1099.87" width="18.39" height="100.66"/>
		<path d="M1099,1153.34v-0.42c9.45-3.34,18.15-12.1,18.15-24.97c0-8.56-3.15-15.47-8.6-20.05c-6.74-5.63-18.36-8.05-30.82-8.05
			c-9.26-0.14-18.52,0.58-27.65,2.15v98.51h18.11v-41.06h9.18c10.37,0.25,15.11,4.47,17.98,17.49c2.78,12.42,5.18,20.66,6.71,23.57
			h18.75c-2-3.9-4.72-15.36-7.88-27.85C1110.43,1162.97,1106.23,1156.08,1099,1153.34z M1078.98,1146.08h-10.79v-31.55
			c3.73-0.72,7.53-1.03,11.34-0.91c11.8,0,19.45,5.13,19.45,16.02C1098.97,1139.56,1091.34,1146.08,1078.98,1146.08z"/>
		<path d="M1180.34,1145.91c-3.89,12.22-7.57,24.52-10.23,36.4h-0.31c-2.61-12.18-6.05-23.95-9.87-36.67l-13.74-45.77h-20.06
			l32.54,100.66h21.09l34.79-100.66h-19.56L1180.34,1145.91z"/>
		<polygon points="1371.08,1155.87 1409.01,1155.87 1409.01,1140.86 1371.08,1140.86 1371.08,1115 1411.28,1115 1411.28,1099.87 
			1352.68,1099.87 1352.68,1200.53 1413.49,1200.53 1413.49,1185.4 1371.08,1185.4 		"/>
		<path d="M1314.33,1113.46c6.74-0.08,13.42,1.26,19.62,3.93l4.01-14.63c-3.74-2.02-12.28-4.46-24.39-4.46
			c-30.77,0-53.9,19.99-53.9,53.1c0,30.64,19.46,50.73,51.43,50.73c12.18,0,21.76-2.38,26.11-4.58l-3.03-14.48
			c-4.86,2.19-12.6,3.66-20.07,3.66c-22.13,0-35.05-14.07-35.05-36.25C1279,1126.27,1293.75,1113.46,1314.33,1113.46z"/>
		<path d="M930.75,1141.93c-13.45-5.13-19.26-8.76-19.26-16.48c0-5.93,4.95-12.12,16.63-12.12c6.99-0.05,13.89,1.59,20.11,4.78
			l4.41-14.83c-5.25-2.67-13.25-4.99-24.14-4.99c-21.82,0-35.61,12.43-35.61,28.91c0,14.43,10.62,23.35,27.29,29.25
			c12.73,4.63,17.84,9.11,17.84,16.7c0,8.24-6.57,13.74-18.3,13.74c-8.51-0.07-16.87-2.28-24.31-6.42l-4.08,15.23
			c5.5,3.37,16.55,6.42,27.21,6.42c25.99,0,38.18-14.06,38.18-30.26C956.65,1157.39,948.23,1148.6,930.75,1141.93z"/>
		<polygon points="991.57,1155.87 1029.5,1155.87 1029.5,1140.86 991.57,1140.86 991.57,1115 1031.76,1115 1031.76,1099.87 
			973.17,1099.87 973.17,1200.53 1033.98,1200.53 1033.98,1185.4 991.57,1185.4 		"/>
		<path d="M1464.69,1141.93c-13.45-5.13-19.27-8.76-19.27-16.48c0-5.93,4.95-12.12,16.64-12.12c6.99-0.05,13.89,1.59,20.11,4.78
			l4.41-14.83c-5.25-2.67-13.25-4.99-24.14-4.99c-21.83,0-35.62,12.43-35.62,28.91c0,14.43,10.63,23.35,27.29,29.25
			c12.72,4.63,17.84,9.11,17.84,16.7c0,8.24-6.57,13.74-18.28,13.74c-8.52-0.07-16.89-2.28-24.33-6.42l-4.08,15.23
			c5.51,3.37,16.56,6.42,27.21,6.42c25.99,0,38.18-14.06,38.18-30.26C1490.57,1157.39,1482.17,1148.6,1464.69,1141.93z"/>
	</g>
	<g>
		<path d="M609.12,1164.14c0,9.34,4.67,16.95,16.95,22.78c16.95,8.17,44.38,15.19,68.93,15.19c30.95,0,56.66-9.34,74.77-25.7
			c5.84-5.26,10.75-12.32,11.74-21.62c2.28-21.3-20.17-56.87-66.65-82.94c22.59,12.67,28.04,25.7,28.04,42.65
			c0,25.11-19.86,42.06-48.49,42.06c-27.44,0-50.84-14.02-63.67-14.02S609.12,1151.29,609.12,1164.14z"/>
		<path d="M289.59,1195.1c23.4-8.76,41.48-25.11,53.16-49.06l-26.29-47.32c-11.68,35.05-32.12,53.74-60.17,53.74
			c-29.2,0-48.48-16.95-48.48-55.49l-0.62,22.17C202.06,1166.19,230.15,1208.09,289.59,1195.1z"/>
		<path d="M354.44,1042.67c0,104.59,42.06,163,175.24,143.11c42.64-22.2,73.01-67.18,94.04-136.11l12.27-40.31
			c-11.68-15.19-16.35-32.12-16.35-50.23c0-19.28,7-36.8,18.69-49.65c-17.53,18.69-32.12,46.15-43.81,84.73l-13.44,44.38
			c-23.97,78.23-61.9,115.62-120.92,115.62C395.33,1154.21,354.44,1109.23,354.44,1042.67z"/>
		<path d="M529.67,1185.75c-133.14,19.86-175.23-51.4-175.23-143.09c0-66.6,40.89-112.16,99.88-112.16
			c19.37-0.14,38.54,4.05,56.08,12.27c7.59,3.5,14.02,4.67,19.86,4.67c14.02,0,23.36-9.34,23.36-23.4c0-8.76-5.25-17.52-17.52-23.36
			c-22.2-11.1-50.84-17.53-81.78-17.53c-92.29,0-155.96,65.43-155.96,160.64c0,93.47,61.33,158.3,160.06,158.3
			C485.29,1202.11,508.64,1196.86,529.67,1185.75z"/>
		<path d="M298.36,1043.8c0-95.22,63.68-160.64,155.96-160.64c30.96,0,59.58,6.46,81.78,17.53c12.27,5.84,17.52,14.61,17.52,23.36
			c0,14.02-9.34,23.4-23.36,23.4c-5.84,0-12.27-1.17-19.86-4.67c-17.55-8.21-36.71-12.4-56.08-12.27
			C373.13,930.5,298.36,981.89,298.36,1043.8z"/>
		<path d="M647.09,901.86c-5.26,5.03-8.22,12-8.18,19.28c0,19.27,18.11,47.9,60.17,77.1l47.9,33.29
			c35.05,24.54,49.06,47.9,49.06,82.95c0,25.11-9.93,46.73-26.28,61.92c5.84-5.26,9.34-12.27,9.34-21.62
			c0-20.44-20.45-52.57-64.26-82.94l-43.81-30.37c-36.8-25.7-51.4-49.65-51.4-82.36c0-19.28,7-36.8,18.69-49.65
			C641.1,906.76,644.03,904.23,647.09,901.86z"/>
		<path d="M699.08,998.29c-18.7-13.44-26.87-25.7-26.87-40.31c0-18.69,15.19-30.37,36.8-30.37c27.44,0,40.35,12.85,56.66,12.85
			c12.85,0,21.61-8.76,21.61-21.61c0-9.34-4.67-16.95-16.95-22.78c-19.28-9.34-40.35-12.85-63.09-12.85
			c-23.95,0-44.98,7.01-60.17,18.7c-5.26,5.03-8.22,12-8.18,19.28C638.91,940.41,657.02,969.04,699.08,998.29z"/>
		<path d="M151.74,942.75c0-35.05,22.78-56.07,56.08-56.07v-59.58c0-17.53-11.68-29.21-28.04-29.21s-28.04,11.68-28.04,29.21V942.75
			z"/>
		<path d="M251.05,1201.53c13.12,0.05,26.16-2.14,38.55-6.46c-59,9.93-81.18-30.66-81.77-75.93v-186.9h68.34
			c15.78,0,26.29-9.34,26.29-22.78s-10.49-22.78-26.29-22.78h-68.34c-33.3,0-56.08,21.03-56.08,56.07v160.64
			C151.74,1167.64,188.54,1201.53,251.05,1201.53z"/>
	</g>
</g>
</svg>
